<mxfile host="app.diagrams.net" agent="Mozilla/5.0 (Windows NT 10.0; Win64; x64) AppleWebKit/537.36 (KHTML, like Gecko) Chrome/127.0.0.0 Safari/537.36" version="24.7.7">
  <diagram id="Ht1M8jgEwFfnCIfOTk4-" name="Page-1">
    <mxGraphModel dx="1533" dy="653" grid="1" gridSize="10" guides="1" tooltips="1" connect="1" arrows="1" fold="1" page="1" pageScale="1" pageWidth="1169" pageHeight="827" math="0" shadow="0">
      <root>
        <mxCell id="0" />
        <mxCell id="1" parent="0" />
        <mxCell id="-QjtrjUzRDEMRZ5MF8oH-47" value="Milestone 2; System Design" style="text;html=1;resizable=0;points=[];autosize=1;align=left;verticalAlign=top;spacingTop=-4;fontSize=30;fontStyle=1" parent="1" vertex="1">
          <mxGeometry x="52.5" y="40" width="400" height="40" as="geometry" />
        </mxCell>
        <mxCell id="-QjtrjUzRDEMRZ5MF8oH-48" value="&lt;span style=&quot;color: rgb(45, 59, 69); font-family: &amp;quot;Lato Extended&amp;quot;, Lato, &amp;quot;Helvetica Neue&amp;quot;, Helvetica, Arial, sans-serif; text-wrap: wrap; background-color: rgb(255, 255, 255);&quot;&gt;Cloud computing environment for a small&amp;nbsp;&lt;/span&gt;&lt;span style=&quot;background-color: rgb(255, 255, 255); color: rgb(45, 59, 69); font-family: &amp;quot;Lato Extended&amp;quot;, Lato, &amp;quot;Helvetica Neue&amp;quot;, Helvetica, Arial, sans-serif; text-wrap: wrap;&quot;&gt;organization&lt;/span&gt;" style="text;html=1;resizable=0;points=[];autosize=1;align=left;verticalAlign=top;spacingTop=-4;fontSize=16;" parent="1" vertex="1">
          <mxGeometry x="52.5" y="80" width="410" height="30" as="geometry" />
        </mxCell>
        <mxCell id="SCVMTBWpLvtzJIhz15lM-1" value="" style="line;strokeWidth=2;html=1;fontSize=14;" parent="1" vertex="1">
          <mxGeometry x="52.5" y="139.5" width="1060" height="10" as="geometry" />
        </mxCell>
        <mxCell id="WjiTVwTJicyw8HLRP1PZ-48" style="edgeStyle=none;curved=1;rounded=0;orthogonalLoop=1;jettySize=auto;html=1;entryX=0.5;entryY=0;entryDx=0;entryDy=0;fontSize=12;startSize=8;endSize=8;" parent="1" source="WjiTVwTJicyw8HLRP1PZ-30" target="WjiTVwTJicyw8HLRP1PZ-4" edge="1">
          <mxGeometry relative="1" as="geometry" />
        </mxCell>
        <mxCell id="WjiTVwTJicyw8HLRP1PZ-30" value="" style="swimlane;startSize=0;" parent="1" vertex="1">
          <mxGeometry x="230" y="190" width="200" height="200" as="geometry">
            <mxRectangle x="70" y="170" width="50" height="40" as="alternateBounds" />
          </mxGeometry>
        </mxCell>
        <mxCell id="WjiTVwTJicyw8HLRP1PZ-31" value="Marketing" style="text;html=1;align=center;verticalAlign=middle;resizable=0;points=[];autosize=1;strokeColor=none;fillColor=none;fontSize=16;" parent="WjiTVwTJicyw8HLRP1PZ-30" vertex="1">
          <mxGeometry x="50" y="10" width="90" height="30" as="geometry" />
        </mxCell>
        <mxCell id="WjiTVwTJicyw8HLRP1PZ-32" value="S3 Bucket of&lt;div&gt;&amp;nbsp;Promotional&amp;nbsp;&lt;span style=&quot;background-color: initial;&quot;&gt;Materials&lt;/span&gt;&lt;/div&gt;" style="text;html=1;align=center;verticalAlign=middle;resizable=0;points=[];autosize=1;strokeColor=none;fillColor=none;fontSize=16;" parent="WjiTVwTJicyw8HLRP1PZ-30" vertex="1">
          <mxGeometry x="10" y="140" width="180" height="50" as="geometry" />
        </mxCell>
        <mxCell id="WjiTVwTJicyw8HLRP1PZ-33" value="" style="verticalLabelPosition=bottom;html=1;verticalAlign=top;strokeWidth=1;align=center;outlineConnect=0;dashed=0;outlineConnect=0;shape=mxgraph.aws3d.s3Bucket;fillColor=#4286c5;strokeColor=#57A2D8;aspect=fixed;" parent="WjiTVwTJicyw8HLRP1PZ-30" vertex="1">
          <mxGeometry x="49.69" y="40" width="90.61" height="94" as="geometry" />
        </mxCell>
        <mxCell id="WjiTVwTJicyw8HLRP1PZ-38" value="" style="swimlane;startSize=0;" parent="1" vertex="1">
          <mxGeometry x="80" y="750" width="790" height="530" as="geometry" />
        </mxCell>
        <mxCell id="WjiTVwTJicyw8HLRP1PZ-40" value="VPC Subnet&lt;div&gt;Hosts all Internal-Only&lt;/div&gt;&lt;div&gt;Instances and Resources&lt;/div&gt;" style="text;html=1;align=center;verticalAlign=middle;resizable=0;points=[];autosize=1;strokeColor=none;fillColor=none;fontSize=16;" parent="WjiTVwTJicyw8HLRP1PZ-38" vertex="1">
          <mxGeometry x="560" y="10" width="200" height="70" as="geometry" />
        </mxCell>
        <mxCell id="WjiTVwTJicyw8HLRP1PZ-41" value="" style="outlineConnect=0;dashed=0;verticalLabelPosition=bottom;verticalAlign=top;align=center;html=1;shape=mxgraph.aws3.virtual_private_cloud;fillColor=#F58534;gradientColor=none;" parent="WjiTVwTJicyw8HLRP1PZ-38" vertex="1">
          <mxGeometry x="620.25" y="70" width="79.5" height="54" as="geometry" />
        </mxCell>
        <mxCell id="WjiTVwTJicyw8HLRP1PZ-60" value="7" style="ellipse;whiteSpace=wrap;html=1;aspect=fixed;rotation=0;gradientColor=#0057D2;strokeColor=none;gradientDirection=east;fillColor=#2395FF;rounded=0;pointerEvents=0;fontFamily=Helvetica;fontSize=16;fontColor=#FFFFFF;spacingTop=4;spacingBottom=4;spacingLeft=4;spacingRight=4;points=[];fontStyle=1" parent="WjiTVwTJicyw8HLRP1PZ-38" vertex="1">
          <mxGeometry x="230" y="350" width="30" height="30" as="geometry" />
        </mxCell>
        <mxCell id="WjiTVwTJicyw8HLRP1PZ-21" value="" style="swimlane;startSize=0;" parent="WjiTVwTJicyw8HLRP1PZ-38" vertex="1">
          <mxGeometry y="280" width="200" height="200" as="geometry">
            <mxRectangle x="70" y="170" width="50" height="40" as="alternateBounds" />
          </mxGeometry>
        </mxCell>
        <mxCell id="WjiTVwTJicyw8HLRP1PZ-22" value="Sales" style="text;html=1;align=center;verticalAlign=middle;resizable=0;points=[];autosize=1;strokeColor=none;fillColor=none;fontSize=16;" parent="WjiTVwTJicyw8HLRP1PZ-21" vertex="1">
          <mxGeometry x="65" y="10" width="60" height="30" as="geometry" />
        </mxCell>
        <mxCell id="WjiTVwTJicyw8HLRP1PZ-23" value="RDS Storage of Recent&amp;nbsp;&lt;div&gt;Sales and Profits&lt;/div&gt;" style="text;html=1;align=center;verticalAlign=middle;resizable=0;points=[];autosize=1;strokeColor=none;fillColor=none;fontSize=16;" parent="WjiTVwTJicyw8HLRP1PZ-21" vertex="1">
          <mxGeometry y="140" width="200" height="50" as="geometry" />
        </mxCell>
        <mxCell id="WjiTVwTJicyw8HLRP1PZ-34" value="" style="sketch=0;points=[[0,0,0],[0.25,0,0],[0.5,0,0],[0.75,0,0],[1,0,0],[0,1,0],[0.25,1,0],[0.5,1,0],[0.75,1,0],[1,1,0],[0,0.25,0],[0,0.5,0],[0,0.75,0],[1,0.25,0],[1,0.5,0],[1,0.75,0]];outlineConnect=0;fontColor=#232F3E;fillColor=#C925D1;strokeColor=#ffffff;dashed=0;verticalLabelPosition=bottom;verticalAlign=top;align=center;html=1;fontSize=12;fontStyle=0;aspect=fixed;shape=mxgraph.aws4.resourceIcon;resIcon=mxgraph.aws4.rds;" parent="WjiTVwTJicyw8HLRP1PZ-21" vertex="1">
          <mxGeometry x="55" y="40" width="90" height="90" as="geometry" />
        </mxCell>
        <mxCell id="WjiTVwTJicyw8HLRP1PZ-59" value="6" style="ellipse;whiteSpace=wrap;html=1;aspect=fixed;rotation=0;gradientColor=#0057D2;strokeColor=none;gradientDirection=east;fillColor=#2395FF;rounded=0;pointerEvents=0;fontFamily=Helvetica;fontSize=16;fontColor=#FFFFFF;spacingTop=4;spacingBottom=4;spacingLeft=4;spacingRight=4;points=[];fontStyle=1" parent="WjiTVwTJicyw8HLRP1PZ-21" vertex="1">
          <mxGeometry x="160" width="30" height="30" as="geometry" />
        </mxCell>
        <mxCell id="WjiTVwTJicyw8HLRP1PZ-17" value="" style="swimlane;startSize=0;" parent="WjiTVwTJicyw8HLRP1PZ-38" vertex="1">
          <mxGeometry x="300" y="280" width="200" height="200" as="geometry">
            <mxRectangle x="330" y="420" width="50" height="40" as="alternateBounds" />
          </mxGeometry>
        </mxCell>
        <mxCell id="WjiTVwTJicyw8HLRP1PZ-18" value="Inventory" style="text;html=1;align=center;verticalAlign=middle;resizable=0;points=[];autosize=1;strokeColor=none;fillColor=none;fontSize=16;" parent="WjiTVwTJicyw8HLRP1PZ-17" vertex="1">
          <mxGeometry x="50" y="10" width="90" height="30" as="geometry" />
        </mxCell>
        <mxCell id="WjiTVwTJicyw8HLRP1PZ-19" value="RDS Database of Current&amp;nbsp;&lt;div&gt;Product Inventory&lt;/div&gt;" style="text;html=1;align=center;verticalAlign=middle;resizable=0;points=[];autosize=1;strokeColor=none;fillColor=none;fontSize=16;" parent="WjiTVwTJicyw8HLRP1PZ-17" vertex="1">
          <mxGeometry x="-5" y="140" width="210" height="50" as="geometry" />
        </mxCell>
        <mxCell id="WjiTVwTJicyw8HLRP1PZ-36" value="" style="sketch=0;points=[[0,0,0],[0.25,0,0],[0.5,0,0],[0.75,0,0],[1,0,0],[0,1,0],[0.25,1,0],[0.5,1,0],[0.75,1,0],[1,1,0],[0,0.25,0],[0,0.5,0],[0,0.75,0],[1,0.25,0],[1,0.5,0],[1,0.75,0]];outlineConnect=0;fontColor=#232F3E;fillColor=#C925D1;strokeColor=#ffffff;dashed=0;verticalLabelPosition=bottom;verticalAlign=top;align=center;html=1;fontSize=12;fontStyle=0;aspect=fixed;shape=mxgraph.aws4.resourceIcon;resIcon=mxgraph.aws4.rds;" parent="WjiTVwTJicyw8HLRP1PZ-17" vertex="1">
          <mxGeometry x="55" y="40" width="90" height="90" as="geometry" />
        </mxCell>
        <mxCell id="WjiTVwTJicyw8HLRP1PZ-61" value="8" style="ellipse;whiteSpace=wrap;html=1;aspect=fixed;rotation=0;gradientColor=#0057D2;strokeColor=none;gradientDirection=east;fillColor=#2395FF;rounded=0;pointerEvents=0;fontFamily=Helvetica;fontSize=16;fontColor=#FFFFFF;spacingTop=4;spacingBottom=4;spacingLeft=4;spacingRight=4;points=[];fontStyle=1" parent="WjiTVwTJicyw8HLRP1PZ-17" vertex="1">
          <mxGeometry x="170" y="10" width="30" height="30" as="geometry" />
        </mxCell>
        <mxCell id="WjiTVwTJicyw8HLRP1PZ-47" style="edgeStyle=none;curved=1;rounded=0;orthogonalLoop=1;jettySize=auto;html=1;exitX=1;exitY=0.5;exitDx=0;exitDy=0;entryX=0;entryY=0.5;entryDx=0;entryDy=0;fontSize=12;startSize=8;endSize=8;" parent="WjiTVwTJicyw8HLRP1PZ-38" source="WjiTVwTJicyw8HLRP1PZ-21" target="WjiTVwTJicyw8HLRP1PZ-17" edge="1">
          <mxGeometry relative="1" as="geometry" />
        </mxCell>
        <mxCell id="WjiTVwTJicyw8HLRP1PZ-13" value="" style="swimlane;startSize=0;" parent="WjiTVwTJicyw8HLRP1PZ-38" vertex="1">
          <mxGeometry x="320" y="30" width="200" height="200" as="geometry">
            <mxRectangle x="70" y="170" width="50" height="40" as="alternateBounds" />
          </mxGeometry>
        </mxCell>
        <mxCell id="WjiTVwTJicyw8HLRP1PZ-14" value="HR &amp;amp; Management" style="text;html=1;align=center;verticalAlign=middle;resizable=0;points=[];autosize=1;strokeColor=none;fillColor=none;fontSize=16;" parent="WjiTVwTJicyw8HLRP1PZ-13" vertex="1">
          <mxGeometry x="15" y="10" width="160" height="30" as="geometry" />
        </mxCell>
        <mxCell id="WjiTVwTJicyw8HLRP1PZ-15" value="S3 Bucket Employee&amp;nbsp;&lt;div&gt;Document Storage&lt;/div&gt;" style="text;html=1;align=center;verticalAlign=middle;resizable=0;points=[];autosize=1;strokeColor=none;fillColor=none;fontSize=16;" parent="WjiTVwTJicyw8HLRP1PZ-13" vertex="1">
          <mxGeometry x="5" y="134" width="180" height="50" as="geometry" />
        </mxCell>
        <mxCell id="WjiTVwTJicyw8HLRP1PZ-16" value="" style="verticalLabelPosition=bottom;html=1;verticalAlign=top;strokeWidth=1;align=center;outlineConnect=0;dashed=0;outlineConnect=0;shape=mxgraph.aws3d.s3Bucket;fillColor=#4286c5;strokeColor=#57A2D8;aspect=fixed;" parent="WjiTVwTJicyw8HLRP1PZ-13" vertex="1">
          <mxGeometry x="49.69" y="40" width="90.61" height="94" as="geometry" />
        </mxCell>
        <mxCell id="WjiTVwTJicyw8HLRP1PZ-62" value="9" style="ellipse;whiteSpace=wrap;html=1;aspect=fixed;rotation=0;gradientColor=#0057D2;strokeColor=none;gradientDirection=east;fillColor=#2395FF;rounded=0;pointerEvents=0;fontFamily=Helvetica;fontSize=16;fontColor=#FFFFFF;spacingTop=4;spacingBottom=4;spacingLeft=4;spacingRight=4;points=[];fontStyle=1" parent="WjiTVwTJicyw8HLRP1PZ-13" vertex="1">
          <mxGeometry x="160" y="10" width="30" height="30" as="geometry" />
        </mxCell>
        <mxCell id="WjiTVwTJicyw8HLRP1PZ-97" value="" style="swimlane;startSize=0;" parent="WjiTVwTJicyw8HLRP1PZ-38" vertex="1">
          <mxGeometry y="10" width="200" height="200" as="geometry">
            <mxRectangle x="70" y="170" width="50" height="40" as="alternateBounds" />
          </mxGeometry>
        </mxCell>
        <mxCell id="WjiTVwTJicyw8HLRP1PZ-98" value="Sales" style="text;html=1;align=center;verticalAlign=middle;resizable=0;points=[];autosize=1;strokeColor=none;fillColor=none;fontSize=16;" parent="WjiTVwTJicyw8HLRP1PZ-97" vertex="1">
          <mxGeometry x="65" y="10" width="60" height="30" as="geometry" />
        </mxCell>
        <mxCell id="WjiTVwTJicyw8HLRP1PZ-99" value="S3 Bucket To Transfer&amp;nbsp;&lt;div&gt;Purchase Information&lt;/div&gt;" style="text;html=1;align=center;verticalAlign=middle;resizable=0;points=[];autosize=1;strokeColor=none;fillColor=none;fontSize=16;" parent="WjiTVwTJicyw8HLRP1PZ-97" vertex="1">
          <mxGeometry y="134" width="190" height="50" as="geometry" />
        </mxCell>
        <mxCell id="WjiTVwTJicyw8HLRP1PZ-100" value="" style="verticalLabelPosition=bottom;html=1;verticalAlign=top;strokeWidth=1;align=center;outlineConnect=0;dashed=0;outlineConnect=0;shape=mxgraph.aws3d.s3Bucket;fillColor=#4286c5;strokeColor=#57A2D8;aspect=fixed;" parent="WjiTVwTJicyw8HLRP1PZ-97" vertex="1">
          <mxGeometry x="49.69" y="40" width="90.61" height="94" as="geometry" />
        </mxCell>
        <mxCell id="WjiTVwTJicyw8HLRP1PZ-58" value="5" style="ellipse;whiteSpace=wrap;html=1;aspect=fixed;rotation=0;gradientColor=#0057D2;strokeColor=none;gradientDirection=east;fillColor=#2395FF;rounded=0;pointerEvents=0;fontFamily=Helvetica;fontSize=16;fontColor=#FFFFFF;spacingTop=4;spacingBottom=4;spacingLeft=4;spacingRight=4;points=[];fontStyle=1" parent="WjiTVwTJicyw8HLRP1PZ-97" vertex="1">
          <mxGeometry x="170" y="10" width="30" height="30" as="geometry" />
        </mxCell>
        <mxCell id="WjiTVwTJicyw8HLRP1PZ-46" style="edgeStyle=none;curved=1;rounded=0;orthogonalLoop=1;jettySize=auto;html=1;entryX=0.5;entryY=0;entryDx=0;entryDy=0;fontSize=12;startSize=8;endSize=8;" parent="WjiTVwTJicyw8HLRP1PZ-38" source="WjiTVwTJicyw8HLRP1PZ-97" target="WjiTVwTJicyw8HLRP1PZ-21" edge="1">
          <mxGeometry relative="1" as="geometry" />
        </mxCell>
        <mxCell id="WjiTVwTJicyw8HLRP1PZ-42" value="" style="swimlane;startSize=0;" parent="1" vertex="1">
          <mxGeometry x="80" y="180" width="730" height="540" as="geometry" />
        </mxCell>
        <mxCell id="WjiTVwTJicyw8HLRP1PZ-43" value="VPC Subnet&lt;div&gt;Hosts all External-Facing&lt;/div&gt;&lt;div&gt;Instances and Resources&lt;/div&gt;" style="text;html=1;align=center;verticalAlign=middle;resizable=0;points=[];autosize=1;strokeColor=none;fillColor=none;fontSize=16;" parent="WjiTVwTJicyw8HLRP1PZ-42" vertex="1">
          <mxGeometry x="530" y="10" width="200" height="70" as="geometry" />
        </mxCell>
        <mxCell id="WjiTVwTJicyw8HLRP1PZ-44" value="" style="outlineConnect=0;dashed=0;verticalLabelPosition=bottom;verticalAlign=top;align=center;html=1;shape=mxgraph.aws3.virtual_private_cloud;fillColor=#F58534;gradientColor=none;" parent="WjiTVwTJicyw8HLRP1PZ-42" vertex="1">
          <mxGeometry x="590.25" y="70" width="79.5" height="54" as="geometry" />
        </mxCell>
        <mxCell id="WjiTVwTJicyw8HLRP1PZ-4" value="" style="swimlane;startSize=0;" parent="WjiTVwTJicyw8HLRP1PZ-42" vertex="1">
          <mxGeometry x="60" y="310" width="360" height="200" as="geometry">
            <mxRectangle x="70" y="170" width="50" height="40" as="alternateBounds" />
          </mxGeometry>
        </mxCell>
        <mxCell id="WjiTVwTJicyw8HLRP1PZ-5" value="Sales and HR/Management" style="text;html=1;align=center;verticalAlign=middle;resizable=0;points=[];autosize=1;strokeColor=none;fillColor=none;fontSize=16;" parent="WjiTVwTJicyw8HLRP1PZ-4" vertex="1">
          <mxGeometry x="71.5" y="10" width="220" height="30" as="geometry" />
        </mxCell>
        <mxCell id="WjiTVwTJicyw8HLRP1PZ-7" value="EC2 Instance Webpage&amp;nbsp;&lt;div&gt;for Product Purchases and Complaints&lt;/div&gt;" style="text;html=1;align=center;verticalAlign=middle;resizable=0;points=[];autosize=1;strokeColor=none;fillColor=none;fontSize=16;" parent="WjiTVwTJicyw8HLRP1PZ-4" vertex="1">
          <mxGeometry x="30" y="140" width="300" height="50" as="geometry" />
        </mxCell>
        <mxCell id="WjiTVwTJicyw8HLRP1PZ-35" value="" style="sketch=0;points=[[0,0,0],[0.25,0,0],[0.5,0,0],[0.75,0,0],[1,0,0],[0,1,0],[0.25,1,0],[0.5,1,0],[0.75,1,0],[1,1,0],[0,0.25,0],[0,0.5,0],[0,0.75,0],[1,0.25,0],[1,0.5,0],[1,0.75,0]];outlineConnect=0;fontColor=#232F3E;fillColor=#ED7100;strokeColor=#ffffff;dashed=0;verticalLabelPosition=bottom;verticalAlign=top;align=center;html=1;fontSize=12;fontStyle=0;aspect=fixed;shape=mxgraph.aws4.resourceIcon;resIcon=mxgraph.aws4.ec2;" parent="WjiTVwTJicyw8HLRP1PZ-4" vertex="1">
          <mxGeometry x="133.5" y="40" width="93" height="93" as="geometry" />
        </mxCell>
        <mxCell id="WjiTVwTJicyw8HLRP1PZ-56" value="3" style="ellipse;whiteSpace=wrap;html=1;aspect=fixed;rotation=0;gradientColor=#0057D2;strokeColor=none;gradientDirection=east;fillColor=#2395FF;rounded=0;pointerEvents=0;fontFamily=Helvetica;fontSize=16;fontColor=#FFFFFF;spacingTop=4;spacingBottom=4;spacingLeft=4;spacingRight=4;points=[];fontStyle=1" parent="WjiTVwTJicyw8HLRP1PZ-4" vertex="1">
          <mxGeometry x="30" y="71.5" width="30" height="30" as="geometry" />
        </mxCell>
        <mxCell id="XKvXWLHACgNQO7Xbbztz-1" value="4" style="ellipse;whiteSpace=wrap;html=1;aspect=fixed;rotation=0;gradientColor=#0057D2;strokeColor=none;gradientDirection=east;fillColor=#2395FF;rounded=0;pointerEvents=0;fontFamily=Helvetica;fontSize=16;fontColor=#FFFFFF;spacingTop=4;spacingBottom=4;spacingLeft=4;spacingRight=4;points=[];fontStyle=1" vertex="1" parent="WjiTVwTJicyw8HLRP1PZ-4">
          <mxGeometry x="291.5" y="71.5" width="30" height="30" as="geometry" />
        </mxCell>
        <mxCell id="WjiTVwTJicyw8HLRP1PZ-52" value="1" style="ellipse;whiteSpace=wrap;html=1;aspect=fixed;rotation=0;gradientColor=#0057D2;strokeColor=none;gradientDirection=east;fillColor=#2395FF;rounded=0;pointerEvents=0;fontFamily=Helvetica;fontSize=16;fontColor=#FFFFFF;spacingTop=4;spacingBottom=4;spacingLeft=4;spacingRight=4;points=[];fontStyle=1" parent="WjiTVwTJicyw8HLRP1PZ-42" vertex="1">
          <mxGeometry x="320" y="20" width="30" height="30" as="geometry" />
        </mxCell>
        <mxCell id="WjiTVwTJicyw8HLRP1PZ-53" value="2" style="ellipse;whiteSpace=wrap;html=1;aspect=fixed;rotation=0;gradientColor=#0057D2;strokeColor=none;gradientDirection=east;fillColor=#2395FF;rounded=0;pointerEvents=0;fontFamily=Helvetica;fontSize=16;fontColor=#FFFFFF;spacingTop=4;spacingBottom=4;spacingLeft=4;spacingRight=4;points=[];fontStyle=1" parent="WjiTVwTJicyw8HLRP1PZ-42" vertex="1">
          <mxGeometry x="230" y="240" width="30" height="30" as="geometry" />
        </mxCell>
        <mxCell id="WjiTVwTJicyw8HLRP1PZ-65" value="" style="edgeStyle=none;curved=1;rounded=0;orthogonalLoop=1;jettySize=auto;html=1;fontSize=12;startSize=8;endSize=8;" parent="1" source="WjiTVwTJicyw8HLRP1PZ-63" target="WjiTVwTJicyw8HLRP1PZ-64" edge="1">
          <mxGeometry relative="1" as="geometry" />
        </mxCell>
        <mxCell id="WjiTVwTJicyw8HLRP1PZ-63" value="1" style="ellipse;whiteSpace=wrap;html=1;aspect=fixed;rotation=0;gradientColor=#0057D2;strokeColor=none;gradientDirection=east;fillColor=#2395FF;rounded=0;pointerEvents=0;fontFamily=Helvetica;fontSize=16;fontColor=#FFFFFF;spacingTop=4;spacingBottom=4;spacingLeft=4;spacingRight=4;points=[];fontStyle=1" parent="1" vertex="1">
          <mxGeometry x="840" y="190" width="30" height="30" as="geometry" />
        </mxCell>
        <mxCell id="WjiTVwTJicyw8HLRP1PZ-64" value="Storage of Logos, Product images, Advertisments, etc" style="whiteSpace=wrap;html=1;fontSize=16;fillColor=#2395FF;strokeColor=none;fontColor=#FFFFFF;gradientColor=#0057D2;gradientDirection=east;rounded=0;pointerEvents=0;spacingTop=4;spacingBottom=4;spacingLeft=4;spacingRight=4;fontStyle=1;" parent="1" vertex="1">
          <mxGeometry x="945" y="167.5" width="155" height="75" as="geometry" />
        </mxCell>
        <mxCell id="WjiTVwTJicyw8HLRP1PZ-68" value="" style="edgeStyle=none;curved=1;rounded=0;orthogonalLoop=1;jettySize=auto;html=1;fontSize=12;startSize=8;endSize=8;" parent="1" source="WjiTVwTJicyw8HLRP1PZ-66" target="WjiTVwTJicyw8HLRP1PZ-67" edge="1">
          <mxGeometry relative="1" as="geometry" />
        </mxCell>
        <mxCell id="WjiTVwTJicyw8HLRP1PZ-66" value="2" style="ellipse;whiteSpace=wrap;html=1;aspect=fixed;rotation=0;gradientColor=#0057D2;strokeColor=none;gradientDirection=east;fillColor=#2395FF;rounded=0;pointerEvents=0;fontFamily=Helvetica;fontSize=16;fontColor=#FFFFFF;spacingTop=4;spacingBottom=4;spacingLeft=4;spacingRight=4;points=[];fontStyle=1" parent="1" vertex="1">
          <mxGeometry x="840" y="275" width="30" height="30" as="geometry" />
        </mxCell>
        <mxCell id="WjiTVwTJicyw8HLRP1PZ-67" value="Promotional Materials get Used in the Sales Webpage and Customer Support Site" style="whiteSpace=wrap;html=1;fontSize=16;fillColor=#2395FF;strokeColor=none;fontColor=#FFFFFF;gradientColor=#0057D2;gradientDirection=east;rounded=0;pointerEvents=0;spacingTop=4;spacingBottom=4;spacingLeft=4;spacingRight=4;fontStyle=1;" parent="1" vertex="1">
          <mxGeometry x="930" y="250" width="230" height="80" as="geometry" />
        </mxCell>
        <mxCell id="WjiTVwTJicyw8HLRP1PZ-71" value="" style="edgeStyle=none;curved=1;rounded=0;orthogonalLoop=1;jettySize=auto;html=1;fontSize=12;startSize=8;endSize=8;" parent="1" source="WjiTVwTJicyw8HLRP1PZ-69" target="WjiTVwTJicyw8HLRP1PZ-70" edge="1">
          <mxGeometry relative="1" as="geometry" />
        </mxCell>
        <mxCell id="WjiTVwTJicyw8HLRP1PZ-69" value="3" style="ellipse;whiteSpace=wrap;html=1;aspect=fixed;rotation=0;gradientColor=#0057D2;strokeColor=none;gradientDirection=east;fillColor=#2395FF;rounded=0;pointerEvents=0;fontFamily=Helvetica;fontSize=16;fontColor=#FFFFFF;spacingTop=4;spacingBottom=4;spacingLeft=4;spacingRight=4;points=[];fontStyle=1" parent="1" vertex="1">
          <mxGeometry x="840" y="373.75" width="30" height="30" as="geometry" />
        </mxCell>
        <mxCell id="WjiTVwTJicyw8HLRP1PZ-70" value="Interface Which allows Customers to &quot;purchase&quot; products; Shipping info is stored on a local database" style="whiteSpace=wrap;html=1;fontSize=16;fillColor=#2395FF;strokeColor=none;fontColor=#FFFFFF;gradientColor=#0057D2;gradientDirection=east;rounded=0;pointerEvents=0;spacingTop=4;spacingBottom=4;spacingLeft=4;spacingRight=4;fontStyle=1;" parent="1" vertex="1">
          <mxGeometry x="930" y="340" width="240" height="97.5" as="geometry" />
        </mxCell>
        <mxCell id="WjiTVwTJicyw8HLRP1PZ-76" value="" style="edgeStyle=none;curved=1;rounded=0;orthogonalLoop=1;jettySize=auto;html=1;fontSize=12;startSize=8;endSize=8;" parent="1" source="WjiTVwTJicyw8HLRP1PZ-72" target="WjiTVwTJicyw8HLRP1PZ-75" edge="1">
          <mxGeometry relative="1" as="geometry" />
        </mxCell>
        <mxCell id="WjiTVwTJicyw8HLRP1PZ-72" value="4" style="ellipse;whiteSpace=wrap;html=1;aspect=fixed;rotation=0;gradientColor=#0057D2;strokeColor=none;gradientDirection=east;fillColor=#2395FF;rounded=0;pointerEvents=0;fontFamily=Helvetica;fontSize=16;fontColor=#FFFFFF;spacingTop=4;spacingBottom=4;spacingLeft=4;spacingRight=4;points=[];fontStyle=1" parent="1" vertex="1">
          <mxGeometry x="840" y="487.5" width="30" height="30" as="geometry" />
        </mxCell>
        <mxCell id="WjiTVwTJicyw8HLRP1PZ-75" value="Interface which allows customers to send in &quot;Help Tickets&quot; which are then stored in a local database" style="whiteSpace=wrap;html=1;fontSize=16;fillColor=#2395FF;strokeColor=none;fontColor=#FFFFFF;gradientColor=#0057D2;gradientDirection=east;rounded=0;pointerEvents=0;spacingTop=4;spacingBottom=4;spacingLeft=4;spacingRight=4;fontStyle=1;" parent="1" vertex="1">
          <mxGeometry x="930" y="450" width="240" height="105" as="geometry" />
        </mxCell>
        <mxCell id="WjiTVwTJicyw8HLRP1PZ-79" value="" style="edgeStyle=none;curved=1;rounded=0;orthogonalLoop=1;jettySize=auto;html=1;fontSize=12;startSize=8;endSize=8;" parent="1" source="WjiTVwTJicyw8HLRP1PZ-77" target="WjiTVwTJicyw8HLRP1PZ-78" edge="1">
          <mxGeometry relative="1" as="geometry" />
        </mxCell>
        <mxCell id="WjiTVwTJicyw8HLRP1PZ-77" value="5" style="ellipse;whiteSpace=wrap;html=1;aspect=fixed;rotation=0;gradientColor=#0057D2;strokeColor=none;gradientDirection=east;fillColor=#2395FF;rounded=0;pointerEvents=0;fontFamily=Helvetica;fontSize=16;fontColor=#FFFFFF;spacingTop=4;spacingBottom=4;spacingLeft=4;spacingRight=4;points=[];fontStyle=1" parent="1" vertex="1">
          <mxGeometry x="840" y="607.5" width="30" height="30" as="geometry" />
        </mxCell>
        <mxCell id="WjiTVwTJicyw8HLRP1PZ-78" value="When a product is purchased, purchase information is saved on an S3 bucket for RDS to pull from" style="whiteSpace=wrap;html=1;fontSize=16;fillColor=#2395FF;strokeColor=none;fontColor=#FFFFFF;gradientColor=#0057D2;gradientDirection=east;rounded=0;pointerEvents=0;spacingTop=4;spacingBottom=4;spacingLeft=4;spacingRight=4;fontStyle=1;" parent="1" vertex="1">
          <mxGeometry x="930" y="570" width="240" height="105" as="geometry" />
        </mxCell>
        <mxCell id="WjiTVwTJicyw8HLRP1PZ-82" value="" style="edgeStyle=none;curved=1;rounded=0;orthogonalLoop=1;jettySize=auto;html=1;fontSize=12;startSize=8;endSize=8;" parent="1" source="WjiTVwTJicyw8HLRP1PZ-80" target="WjiTVwTJicyw8HLRP1PZ-81" edge="1">
          <mxGeometry relative="1" as="geometry" />
        </mxCell>
        <mxCell id="WjiTVwTJicyw8HLRP1PZ-80" value="6" style="ellipse;whiteSpace=wrap;html=1;aspect=fixed;rotation=0;gradientColor=#0057D2;strokeColor=none;gradientDirection=east;fillColor=#2395FF;rounded=0;pointerEvents=0;fontFamily=Helvetica;fontSize=16;fontColor=#FFFFFF;spacingTop=4;spacingBottom=4;spacingLeft=4;spacingRight=4;points=[];fontStyle=1" parent="1" vertex="1">
          <mxGeometry x="900" y="730" width="30" height="30" as="geometry" />
        </mxCell>
        <mxCell id="WjiTVwTJicyw8HLRP1PZ-81" value="Internal Database which records all sales and profits from them" style="whiteSpace=wrap;html=1;fontSize=16;fillColor=#2395FF;strokeColor=none;fontColor=#FFFFFF;gradientColor=#0057D2;gradientDirection=east;rounded=0;pointerEvents=0;spacingTop=4;spacingBottom=4;spacingLeft=4;spacingRight=4;fontStyle=1;" parent="1" vertex="1">
          <mxGeometry x="1010" y="702.5" width="150" height="85" as="geometry" />
        </mxCell>
        <mxCell id="WjiTVwTJicyw8HLRP1PZ-85" value="" style="edgeStyle=none;curved=1;rounded=0;orthogonalLoop=1;jettySize=auto;html=1;fontSize=12;startSize=8;endSize=8;" parent="1" source="WjiTVwTJicyw8HLRP1PZ-83" target="WjiTVwTJicyw8HLRP1PZ-84" edge="1">
          <mxGeometry relative="1" as="geometry" />
        </mxCell>
        <mxCell id="WjiTVwTJicyw8HLRP1PZ-83" value="7" style="ellipse;whiteSpace=wrap;html=1;aspect=fixed;rotation=0;gradientColor=#0057D2;strokeColor=none;gradientDirection=east;fillColor=#2395FF;rounded=0;pointerEvents=0;fontFamily=Helvetica;fontSize=16;fontColor=#FFFFFF;spacingTop=4;spacingBottom=4;spacingLeft=4;spacingRight=4;points=[];fontStyle=1" parent="1" vertex="1">
          <mxGeometry x="915" y="870" width="30" height="30" as="geometry" />
        </mxCell>
        <mxCell id="WjiTVwTJicyw8HLRP1PZ-84" value="Sold Products are removed from current inventory" style="whiteSpace=wrap;html=1;fontSize=16;fillColor=#2395FF;strokeColor=none;fontColor=#FFFFFF;gradientColor=#0057D2;gradientDirection=east;rounded=0;pointerEvents=0;spacingTop=4;spacingBottom=4;spacingLeft=4;spacingRight=4;fontStyle=1;" parent="1" vertex="1">
          <mxGeometry x="1000" y="840" width="170" height="95" as="geometry" />
        </mxCell>
        <mxCell id="WjiTVwTJicyw8HLRP1PZ-88" value="" style="edgeStyle=none;curved=1;rounded=0;orthogonalLoop=1;jettySize=auto;html=1;fontSize=12;startSize=8;endSize=8;" parent="1" source="WjiTVwTJicyw8HLRP1PZ-86" target="WjiTVwTJicyw8HLRP1PZ-87" edge="1">
          <mxGeometry relative="1" as="geometry" />
        </mxCell>
        <mxCell id="WjiTVwTJicyw8HLRP1PZ-86" value="8" style="ellipse;whiteSpace=wrap;html=1;aspect=fixed;rotation=0;gradientColor=#0057D2;strokeColor=none;gradientDirection=east;fillColor=#2395FF;rounded=0;pointerEvents=0;fontFamily=Helvetica;fontSize=16;fontColor=#FFFFFF;spacingTop=4;spacingBottom=4;spacingLeft=4;spacingRight=4;points=[];fontStyle=1" parent="1" vertex="1">
          <mxGeometry x="920" y="990" width="30" height="30" as="geometry" />
        </mxCell>
        <mxCell id="WjiTVwTJicyw8HLRP1PZ-87" value="Database which keeps track of current inventory" style="whiteSpace=wrap;html=1;fontSize=16;fillColor=#2395FF;strokeColor=none;fontColor=#FFFFFF;gradientColor=#0057D2;gradientDirection=east;rounded=0;pointerEvents=0;spacingTop=4;spacingBottom=4;spacingLeft=4;spacingRight=4;fontStyle=1;" parent="1" vertex="1">
          <mxGeometry x="1000" y="967.5" width="145" height="75" as="geometry" />
        </mxCell>
        <mxCell id="WjiTVwTJicyw8HLRP1PZ-91" value="" style="edgeStyle=none;curved=1;rounded=0;orthogonalLoop=1;jettySize=auto;html=1;fontSize=12;startSize=8;endSize=8;" parent="1" source="WjiTVwTJicyw8HLRP1PZ-89" target="WjiTVwTJicyw8HLRP1PZ-90" edge="1">
          <mxGeometry relative="1" as="geometry" />
        </mxCell>
        <mxCell id="WjiTVwTJicyw8HLRP1PZ-89" value="9" style="ellipse;whiteSpace=wrap;html=1;aspect=fixed;rotation=0;gradientColor=#0057D2;strokeColor=none;gradientDirection=east;fillColor=#2395FF;rounded=0;pointerEvents=0;fontFamily=Helvetica;fontSize=16;fontColor=#FFFFFF;spacingTop=4;spacingBottom=4;spacingLeft=4;spacingRight=4;points=[];fontStyle=1" parent="1" vertex="1">
          <mxGeometry x="920" y="1120.63" width="30" height="30" as="geometry" />
        </mxCell>
        <mxCell id="WjiTVwTJicyw8HLRP1PZ-90" value="Bucket containing employee documents, financial information, names, addresses, etc." style="whiteSpace=wrap;html=1;fontSize=16;fillColor=#2395FF;strokeColor=none;fontColor=#FFFFFF;gradientColor=#0057D2;gradientDirection=east;rounded=0;pointerEvents=0;spacingTop=4;spacingBottom=4;spacingLeft=4;spacingRight=4;fontStyle=1;" parent="1" vertex="1">
          <mxGeometry x="1000" y="1070" width="165" height="131.25" as="geometry" />
        </mxCell>
        <mxCell id="WjiTVwTJicyw8HLRP1PZ-101" value="" style="edgeStyle=none;curved=1;rounded=0;orthogonalLoop=1;jettySize=auto;html=1;entryX=0.5;entryY=0;entryDx=0;entryDy=0;fontSize=12;startSize=8;endSize=8;" parent="1" source="WjiTVwTJicyw8HLRP1PZ-7" target="WjiTVwTJicyw8HLRP1PZ-97" edge="1">
          <mxGeometry relative="1" as="geometry">
            <mxPoint x="179" y="690" as="sourcePoint" />
            <mxPoint x="180" y="970" as="targetPoint" />
          </mxGeometry>
        </mxCell>
      </root>
    </mxGraphModel>
  </diagram>
</mxfile>
